<svg width="19" height="19" viewBox="0 0 19 19" fill="none" xmlns="http://www.w3.org/2000/svg">
<g clip-path="url(#clip0_2_1234)">
<path d="M6.13213 16.6249H17.8124C16.0311 15.4374 15.4374 9.61626 15.4374 8.31238C15.4374 7.99888 15.4136 7.69132 15.3661 7.39088L6.13213 16.6249ZM13.5991 4.0172C12.79 3.24389 11.7784 2.71564 10.6814 2.49363C10.698 2.32852 10.6798 2.16176 10.628 2.00411C10.5761 1.84647 10.4918 1.70144 10.3805 1.57838C10.2692 1.45532 10.1333 1.35695 9.98162 1.28963C9.82994 1.22231 9.66583 1.18753 9.49988 1.18753C9.33394 1.18753 9.16983 1.22231 9.01815 1.28963C8.86648 1.35695 8.73059 1.45532 8.61926 1.57838C8.50793 1.70144 8.42363 1.84647 8.3718 2.00411C8.31997 2.16176 8.30175 2.32852 8.31832 2.49363C6.97631 2.7666 5.76985 3.49491 4.90317 4.55527C4.03649 5.61563 3.56283 6.94289 3.56238 8.31238C3.56238 9.37876 3.16457 13.4685 2.04476 15.5716L13.5991 4.0172ZM11.8749 17.8124C11.8749 18.4423 11.6247 19.0464 11.1793 19.4918C10.7339 19.9372 10.1298 20.1874 9.49988 20.1874C8.87 20.1874 8.2659 19.9372 7.82051 19.4918C7.37511 19.0464 7.12488 18.4423 7.12488 17.8124H11.8749ZM0.742072 18.5546C0.623967 18.6727 0.557617 18.8329 0.557617 18.9999C0.557617 19.1669 0.623967 19.3271 0.742072 19.4452C0.860176 19.5633 1.02036 19.6297 1.18738 19.6297C1.35441 19.6297 1.51459 19.5633 1.6327 19.4452L19.1483 1.92957C19.2068 1.87109 19.2532 1.80167 19.2848 1.72526C19.3165 1.64885 19.3328 1.56696 19.3328 1.48426C19.3328 1.40156 19.3165 1.31966 19.2848 1.24326C19.2532 1.16685 19.2068 1.09743 19.1483 1.03895C19.0898 0.980467 19.0204 0.934079 18.944 0.90243C18.8676 0.870782 18.7857 0.854492 18.703 0.854492C18.6203 0.854492 18.5384 0.870782 18.462 0.90243C18.3856 0.934079 18.3162 0.980467 18.2577 1.03895L0.742072 18.5546Z" fill="#593F62"/>
</g>
<defs>
<clipPath id="clip0_2_1234">
<rect width="19" height="19" fill="white"/>
</clipPath>
</defs>
</svg>
