<svg width="23" height="23" viewBox="0 0 23 23" fill="none" xmlns="http://www.w3.org/2000/svg">
<path d="M6.325 3.4502C5.76053 3.45001 5.20849 3.616 4.73773 3.92746C4.26696 4.23892 3.8983 4.68206 3.6777 5.20165C4.01492 5.15032 4.35933 5.17465 4.68599 5.27286C5.01265 5.37107 5.31337 5.54071 5.56638 5.76948C5.81938 5.99826 6.01833 6.28045 6.14882 6.59561C6.27931 6.91076 6.33806 7.251 6.32083 7.59166C6.30359 7.93233 6.2108 8.2649 6.04918 8.56528C5.88755 8.86566 5.66114 9.12633 5.38634 9.3284C5.11154 9.53048 4.79523 9.6689 4.46033 9.73365C4.12543 9.79839 3.78032 9.78784 3.45 9.70274V16.6752C3.45 17.4377 3.7529 18.169 4.29207 18.7081C4.83124 19.2473 5.5625 19.5502 6.325 19.5502H16.675C17.4375 19.5502 18.1688 19.2473 18.7079 18.7081C19.2471 18.169 19.55 17.4377 19.55 16.6752V6.3252C19.55 5.5627 19.2471 4.83143 18.7079 4.29226C18.1688 3.7531 17.4375 3.4502 16.675 3.4502H6.325ZM8.05 9.77519C8.05 9.62269 8.11058 9.47644 8.21841 9.36861C8.32625 9.26077 8.4725 9.20019 8.625 9.20019H14.375C14.5275 9.20019 14.6738 9.26077 14.7816 9.36861C14.8894 9.47644 14.95 9.62269 14.95 9.77519C14.95 9.92769 14.8894 10.0739 14.7816 10.1818C14.6738 10.2896 14.5275 10.3502 14.375 10.3502H8.625C8.4725 10.3502 8.32625 10.2896 8.21841 10.1818C8.11058 10.0739 8.05 9.92769 8.05 9.77519ZM8.625 12.6502H12.075C12.2275 12.6502 12.3738 12.7108 12.4816 12.8186C12.5894 12.9264 12.65 13.0727 12.65 13.2252C12.65 13.3777 12.5894 13.5239 12.4816 13.6318C12.3738 13.7396 12.2275 13.8002 12.075 13.8002H8.625C8.4725 13.8002 8.32625 13.7396 8.21841 13.6318C8.11058 13.5239 8.05 13.3777 8.05 13.2252C8.05 13.0727 8.11058 12.9264 8.21841 12.8186C8.32625 12.7108 8.4725 12.6502 8.625 12.6502ZM4.025 6.3252C3.72 6.3252 3.42749 6.44636 3.21183 6.66202C2.99616 6.87769 2.875 7.1702 2.875 7.47519C2.875 7.78019 2.99616 8.0727 3.21183 8.28837C3.42749 8.50403 3.72 8.62519 4.025 8.62519C4.33 8.62519 4.62251 8.50403 4.83817 8.28837C5.05384 8.0727 5.175 7.78019 5.175 7.47519C5.175 7.1702 5.05384 6.87769 4.83817 6.66202C4.62251 6.44636 4.33 6.3252 4.025 6.3252Z" fill="#593F62"/>
</svg>
