<svg width="19" height="19" viewBox="0 0 19 19" fill="none" xmlns="http://www.w3.org/2000/svg">
<path d="M16.0312 4.75H13.6562V3.26562C13.6562 2.61064 13.1237 2.07812 12.4688 2.07812H6.53125C5.87627 2.07812 5.34375 2.61064 5.34375 3.26562V4.75H2.96875C2.64033 4.75 2.375 5.01533 2.375 5.34375V5.9375C2.375 6.01914 2.4418 6.08594 2.52344 6.08594H3.64414L4.10244 15.79C4.13213 16.4228 4.65537 16.9219 5.28809 16.9219H13.7119C14.3465 16.9219 14.8679 16.4246 14.8976 15.79L15.3559 6.08594H16.4766C16.5582 6.08594 16.625 6.01914 16.625 5.9375V5.34375C16.625 5.01533 16.3597 4.75 16.0312 4.75ZM12.3203 4.75H6.67969V3.41406H12.3203V4.75Z" fill="#593F62"/>
</svg>
