<svg width="23" height="23" viewBox="0 0 23 23" fill="none" xmlns="http://www.w3.org/2000/svg">
<path d="M11.4999 21.0837C10.9916 21.0837 10.5041 20.8817 10.1446 20.5223C9.78519 20.1628 9.58325 19.6753 9.58325 19.167H13.4166C13.4166 19.6753 13.2147 20.1628 12.8552 20.5223C12.4958 20.8817 12.0083 21.0837 11.4999 21.0837ZM19.1666 18.2087H3.83325V16.292L5.74992 15.3337V10.0628C5.69943 8.71073 6.00477 7.36908 6.63542 6.172C6.94576 5.62313 7.36896 5.1463 7.87708 4.77297C8.38521 4.39964 8.96672 4.13829 9.58325 4.00616V1.917H13.0773C12.4702 2.5955 12.0934 3.44876 12.0009 4.35452C11.9084 5.26029 12.105 6.17209 12.5624 6.95931C13.0199 7.74653 13.7147 8.36877 14.5474 8.73691C15.3802 9.10504 16.3081 9.20017 17.1982 9.00866C17.2317 9.35079 17.248 9.70537 17.248 10.0628V15.3337L19.1647 16.292V18.2087H19.1666ZM16.2916 7.667C15.914 7.66637 15.5403 7.59138 15.1917 7.44632C14.8432 7.30125 14.5266 7.08895 14.2601 6.82154C13.9935 6.55413 13.7823 6.23684 13.6384 5.88778C13.4945 5.53873 13.4207 5.16476 13.4214 4.7872C13.422 4.40965 13.497 4.03592 13.6421 3.68735C13.7871 3.33878 13.9994 3.0222 14.2668 2.75568C14.5342 2.48915 14.8515 2.27791 15.2006 2.13401C15.5496 1.99011 15.9236 1.91637 16.3012 1.917C17.0637 1.91827 17.7944 2.22239 18.3327 2.76245C18.871 3.30252 19.1726 4.03429 19.1714 4.79679C19.1701 5.55929 18.866 6.29005 18.3259 6.82832C17.7859 7.36659 17.0541 7.66827 16.2916 7.667Z" fill="#593F62"/>
</svg>
