<svg width="22" height="22" viewBox="0 0 22 22" fill="none" xmlns="http://www.w3.org/2000/svg">
<path d="M12.6875 11.8438C12.6875 12.0675 12.7764 12.2821 12.9346 12.4404C13.0929 12.5986 13.3075 12.6875 13.5312 12.6875C13.755 12.6875 13.9696 12.5986 14.1279 12.4404C14.2861 12.2821 14.375 12.0675 14.375 11.8438C14.375 11.62 14.2861 11.4054 14.1279 11.2471C13.9696 11.0889 13.755 11 13.5312 11C13.3075 11 13.0929 11.0889 12.9346 11.2471C12.7764 11.4054 12.6875 11.62 12.6875 11.8438ZM16.0625 9.3125C15.9028 9.3124 15.7464 9.35774 15.6115 9.44324C15.4766 9.52873 15.3688 9.65085 15.3008 9.79531C15.7414 10.1305 16.107 10.5148 16.3766 10.9391C16.5588 10.8664 16.71 10.7324 16.8041 10.5603C16.8982 10.3881 16.9293 10.1885 16.8922 9.99591C16.855 9.80327 16.7518 9.62963 16.6003 9.50489C16.4489 9.38015 16.2587 9.31211 16.0625 9.3125ZM11 0.5C5.20156 0.5 0.5 5.20156 0.5 11C0.5 16.7984 5.20156 21.5 11 21.5C16.7984 21.5 21.5 16.7984 21.5 11C21.5 5.20156 16.7984 0.5 11 0.5ZM16.7422 11.7008C16.85 12.0172 16.9062 12.3477 16.9062 12.6875C16.9062 15.0172 14.2625 16.9062 11 16.9062C7.7375 16.9062 5.09375 15.0172 5.09375 12.6875C5.09375 12.3477 5.15 12.0172 5.25781 11.7008C4.90361 11.5446 4.61386 11.2714 4.43713 10.927C4.26039 10.5826 4.20742 10.188 4.28708 9.80915C4.36674 9.43034 4.5742 9.09043 4.87468 8.84639C5.17517 8.60235 5.5504 8.46902 5.9375 8.46875C6.57266 8.46875 7.12344 8.81797 7.41172 9.33594C8.26016 8.87187 9.29141 8.56719 10.4141 8.48984L11.7828 5.41719C11.8836 5.1875 12.1391 5.07031 12.3805 5.14062L14.5273 5.76172C14.661 5.5135 14.8737 5.31698 15.1317 5.20332C15.3897 5.08965 15.6783 5.06533 15.9517 5.13422C16.2251 5.2031 16.4676 5.36125 16.641 5.5836C16.8143 5.80595 16.9085 6.07979 16.9086 6.36172C16.9086 7.06016 16.3414 7.62734 15.643 7.62734C15.0922 7.62734 14.6234 7.27344 14.45 6.78125L12.5234 6.22578L11.5156 8.4875C12.6664 8.55781 13.7234 8.86484 14.5906 9.33828C14.8789 8.82031 15.4297 8.47109 16.0648 8.47109C16.9977 8.47109 17.7523 9.22578 17.7523 10.1586C17.75 10.8453 17.3352 11.4383 16.7422 11.7008ZM12.7273 13.6461C12.3781 13.9203 11.6891 14.2156 11 14.2156C10.3109 14.2156 9.61953 13.9203 9.27266 13.6461C9.05469 13.475 8.74062 13.5125 8.56953 13.7305C8.39844 13.9484 8.43594 14.2625 8.65391 14.4336C9.25625 14.9117 10.1773 15.2188 11 15.2188C11.8227 15.2188 12.7438 14.9117 13.3484 14.4336C13.5664 14.2625 13.6039 13.9461 13.4328 13.7305C13.3504 13.6259 13.2298 13.5582 13.0975 13.5424C12.9653 13.5266 12.8321 13.5639 12.7273 13.6461ZM5.9375 9.3125C5.7413 9.31211 5.55111 9.38015 5.39968 9.50489C5.24824 9.62963 5.14504 9.80327 5.10784 9.99591C5.07065 10.1885 5.10179 10.3881 5.1959 10.5603C5.29001 10.7324 5.4412 10.8664 5.62344 10.9391C5.89297 10.5148 6.25859 10.1305 6.69922 9.79531C6.63116 9.65085 6.52339 9.52873 6.38851 9.44324C6.25362 9.35774 6.0972 9.3124 5.9375 9.3125ZM7.625 11.8438C7.625 12.0675 7.71389 12.2821 7.87213 12.4404C8.03036 12.5986 8.24497 12.6875 8.46875 12.6875C8.69253 12.6875 8.90714 12.5986 9.06537 12.4404C9.22361 12.2821 9.3125 12.0675 9.3125 11.8438C9.3125 11.62 9.22361 11.4054 9.06537 11.2471C8.90714 11.0889 8.69253 11 8.46875 11C8.24497 11 8.03036 11.0889 7.87213 11.2471C7.71389 11.4054 7.625 11.62 7.625 11.8438Z" fill="#593F62"/>
</svg>
